<?xml version="1.0" encoding="utf-8"?>
<!-- Generator: Adobe Illustrator 22.1.0, SVG Export Plug-In . SVG Version: 6.00 Build 0)  -->
<svg version="1.1" id="Capa_1" xmlns="http://www.w3.org/2000/svg" xmlns:xlink="http://www.w3.org/1999/xlink" x="0px" y="0px"
	 viewBox="0 0 499.6 528" style="enable-background:new 0 0 499.6 528;" xml:space="preserve">
<style type="text/css">
	.st0{fill:#FFDA68;}
	.st1{fill:#FFA918;}
	.st2{fill:#2D69AD;}
	.st3{fill:#FF5957;}
	.st4{fill:#FC7718;}
	.st5{fill:#1B3359;}
	.st6{fill:#FC1B5B;}
</style>
<path class="st0" d="M217.7,521.7L11.6,341.2c-3.2-2.8-5.1-6.9-5.1-11.1c0-4.3,1.8-8.3,5-11.2l156.3-139.6
	c5.6-5.1,14.1-5.1,19.8-0.1l167.7,146.9c5.7,5,6.7,13.4,2.5,19.6L239.9,518.9c-2.4,3.5-6.3,5.8-10.5,6.4
	C225.3,525.9,220.9,524.6,217.7,521.7z"/>
<path class="st1" d="M357.7,345.6c4.3-6.2,3.1-14.7-2.5-19.6l-84.2-73.8L114.2,431.1l103.4,90.6c3.2,2.8,7.5,4.1,11.8,3.6
	c4.2-0.5,8-2.8,10.5-6.4L357.7,345.6z"/>
<path class="st2" d="M321.6,248.4L268.5,202c-6.2-5.5-6.9-14.9-1.4-21.1L402.5,26.4c18.2-20.8,50.1-22.9,70.9-4.7
	c20.8,18.2,22.9,50.1,4.7,70.9L342.7,247.1C337.3,253.2,327.9,253.9,321.6,248.4z"/>
<path class="st3" d="M335.6,348.4L167.8,201.5c-3.2-2.8-5.1-6.9-5.1-11.1c0-4.3,1.8-8.3,5-11.2l13.2-11.8
	c26.4-23.6,66.4-23.8,93-0.4l81.9,71.8c26.6,23.3,31.7,63,11.8,92.3l-10,14.7c-2.4,3.5-6.3,5.8-10.5,6.4
	C343,352.6,338.7,351.3,335.6,348.4z"/>
<path class="st4" d="M147.9,460.6c-6-5.3-6.8-14.2-1.8-20.5l58.4-73.5c5.1-6.5,14.5-7.6,21-2.4c6.5,5.2,7.6,14.5,2.4,21l-58.4,73.5
	c-5.1,6.5-14.5,7.6-21,2.4C148.2,460.9,148.1,460.7,147.9,460.6z"/>
<path class="st1" d="M81.3,402.3c-0.2-0.2-0.4-0.3-0.6-0.5c-6-5.8-6.1-15.2-0.4-21.1l65.1-67.6c5.8-6,15.2-6.1,21.1-0.4
	c6,5.8,6.1,15.2,0.4,21.1l-65.1,67.6C96.3,407.2,87.3,407.5,81.3,402.3z"/>
<path class="st5" d="M473.3,21.7c-0.1-0.1-0.2-0.1-0.3-0.2L294.8,224.9l26.8,23.5c6.2,5.5,15.6,4.8,21.1-1.4L478,92.6
	C496.4,71.7,494.3,39.9,473.3,21.7z"/>
<path class="st6" d="M367.7,330.9c19.9-29.3,14.8-68.9-11.8-92.3l-41.3-36.3l-63.2,72.2l84.2,73.8c3.2,2.8,7.5,4.1,11.8,3.6
	c4.2-0.5,8-2.8,10.5-6.4L367.7,330.9z"/>
</svg>
